<svg width="42" height="42" viewBox="0 0 42 42" fill="none" xmlns="http://www.w3.org/2000/svg">
<g clip-path="url(#clip0_103_53)">
<path d="M29.75 1.75H12.25C10.325 1.75 8.75 3.325 8.75 5.25V36.75C8.75 38.675 10.325 40.25 12.25 40.25H29.75C31.675 40.25 33.25 38.675 33.25 36.75V5.25C33.25 3.325 31.675 1.75 29.75 1.75ZM12.25 31.5V10.5H29.75V31.5H12.25ZM28 19.25V15.995C28 14.8925 27.2125 14 26.25 14H15.75C14.7875 14 14 14.8925 14 15.995V19.425C14.9625 19.425 15.75 20.2125 15.75 21.175C15.75 22.1375 14.9625 22.925 14 22.925V26.005C14 27.1075 14.7875 28 15.75 28H26.25C27.2125 28 28 27.1075 28 26.005V22.75C27.0375 22.75 26.25 21.9625 26.25 21C26.25 20.0375 27.0375 19.25 28 19.25ZM21.875 25.375H20.125V23.625H21.875V25.375ZM21.875 21.875H20.125V20.125H21.875V21.875ZM21.875 18.375H20.125V16.625H21.875V18.375Z" fill="white"/>
</g>
<defs>
<clipPath id="clip0_103_53">
<rect width="42" height="42" fill="white"/>
</clipPath>
</defs>
</svg>
