<svg width="92" height="83" viewBox="0 0 92 83" fill="none" xmlns="http://www.w3.org/2000/svg">
<g clip-path="url(#clip0_30_40)" filter="url(#filter0_f_30_40)">
<path d="M69 28.3334H65.1667V21.5C65.1667 12.07 56.58 4.41669 46 4.41669C35.42 4.41669 26.8333 12.07 26.8333 21.5V28.3334H23C18.7833 28.3334 15.3333 31.4084 15.3333 35.1667V69.3334C15.3333 73.0917 18.7833 76.1667 23 76.1667H69C73.2167 76.1667 76.6667 73.0917 76.6667 69.3334V35.1667C76.6667 31.4084 73.2167 28.3334 69 28.3334ZM46 59.0834C41.7833 59.0834 38.3333 56.0084 38.3333 52.25C38.3333 48.4917 41.7833 45.4167 46 45.4167C50.2167 45.4167 53.6667 48.4917 53.6667 52.25C53.6667 56.0084 50.2167 59.0834 46 59.0834ZM57.8833 28.3334H34.1167V21.5C34.1167 15.6575 39.445 10.9084 46 10.9084C52.555 10.9084 57.8833 15.6575 57.8833 21.5V28.3334Z" fill="black"/>
</g>
<defs>
<filter id="filter0_f_30_40" x="-4" y="-3" width="100" height="90" filterUnits="userSpaceOnUse" color-interpolation-filters="sRGB">
<feFlood flood-opacity="0" result="BackgroundImageFix"/>
<feBlend mode="normal" in="SourceGraphic" in2="BackgroundImageFix" result="shape"/>
<feGaussianBlur stdDeviation="2" result="effect1_foregroundBlur_30_40"/>
</filter>
<clipPath id="clip0_30_40">
<rect width="92" height="82" fill="white" transform="translate(0 1)"/>
</clipPath>
</defs>
</svg>
